<svg width="31" height="40" viewBox="0 0 31 40" fill="none" xmlns="http://www.w3.org/2000/svg">
<path d="M5.63751 39.824C4.86048 39.5191 4.52721 38.7463 4.89277 38.0982C4.89277 38.0976 4.98292 37.9387 5.14958 37.6297C5.31544 37.3201 5.5553 36.8668 5.84271 36.2994C6.4176 35.1632 7.18636 33.5679 7.95295 31.7447C9.49053 28.1062 10.9962 23.5199 10.9855 20.023C10.9855 19.6496 10.9696 19.2898 10.9356 18.9459C10.6644 16.0216 8.65096 12.3499 6.41353 9.24167C4.18506 6.12478 1.77228 3.53689 0.826407 2.55861C0.555751 2.27856 0.412486 2.13757 0.41174 2.13689C-0.143004 1.5903 -0.0608577 0.771796 0.595298 0.309731C1.25139 -0.152956 2.23199 -0.0844413 2.78673 0.462772C2.81482 0.491117 5.38721 3.02792 8.07532 6.54849C10.7538 10.083 13.5972 14.5478 14.0344 18.7337C14.0754 19.156 14.0948 19.5866 14.0948 20.023C14.0844 24.0919 12.4693 28.8191 10.8874 32.603C9.29985 36.378 7.72102 39.1762 7.70658 39.2028C7.44162 39.6726 6.88253 39.9477 6.29896 39.9477C6.07701 39.9477 5.8516 39.9078 5.63751 39.824Z" fill="white"/>
<path d="M23.2755 39.2025C23.2619 39.1759 21.6821 36.3783 20.0946 32.6027C18.5118 28.8189 16.8968 24.0916 16.8861 20.0234C16.8861 19.5849 16.9063 19.1545 16.9476 18.7335C17.3852 14.5475 20.229 10.0836 22.9072 6.54895C25.5962 3.02833 28.1678 0.491522 28.1959 0.462555L28.1966 0.463177C28.7508 -0.0840362 29.7313 -0.152438 30.3876 0.309457C31.0427 0.772145 31.1255 1.59002 30.5709 2.13729C30.5709 2.13792 30.4267 2.27896 30.1564 2.55896C29.8858 2.83823 29.4952 3.24926 29.0245 3.76626C28.0824 4.80038 26.8147 6.25939 25.5305 7.94154C22.9517 11.2941 20.352 15.5997 20.0468 18.9463C20.013 19.2914 19.9956 19.6514 19.9956 20.0233C19.9884 23.0798 21.1355 26.9804 22.4575 30.3385C23.7754 33.7025 25.25 36.547 25.833 37.6294C25.9989 37.939 26.0888 38.0979 26.09 38.0986C26.4555 38.7466 26.1219 39.5188 25.3446 39.8243C25.1305 39.9082 24.9057 39.9481 24.6841 39.9481C24.1003 39.948 23.5404 39.6723 23.2755 39.2025Z" fill="white"/>
<path d="M14.1412 11.5197L9.96294 5.42092C9.6018 4.89351 9.72593 4.23167 10.2624 3.82172L14.4408 0.627034C15.0356 0.171645 15.9468 0.171645 16.5415 0.627034L20.7199 3.82172C21.2562 4.23105 21.3803 4.89351 21.0194 5.42092L16.8409 11.5197C16.5654 11.9216 16.0465 12.1726 15.4912 12.1726C14.9363 12.1726 14.4168 11.9215 14.1412 11.5197ZM13.2791 5.0336L15.4908 8.26245L17.7034 5.03297L15.4912 3.3416L13.2791 5.0336Z" fill="white"/>
</svg>
